<?xml version="1.0" encoding="UTF-8"?>
<!DOCTYPE svg PUBLIC "-//W3C//DTD SVG 1.1//EN" "http://www.w3.org/Graphics/SVG/1.1/DTD/svg11.dtd">
<svg version="1.1" xmlns="http://www.w3.org/2000/svg" xmlns:xlink="http://www.w3.org/1999/xlink" x="0" y="0" width="155.111" height="155.111" viewBox="0, 0, 155.111, 155.111">
  <g id="Layer_1" transform="translate(-486.541, -65.564)">
    <path d="M564.097,150.973 C559.759,150.973 556.243,147.457 556.243,143.119 C556.243,138.782 559.759,135.265 564.097,135.265 C568.434,135.265 571.951,138.782 571.951,143.119 C571.951,147.457 568.434,150.973 564.097,150.973 z" fill="#FF0000"/>
    <g>
      <path d="M641.652,143.119 C641.652,145.432 639.777,147.307 637.465,147.307 C635.152,147.307 633.277,145.432 633.277,143.119 C633.277,140.807 635.152,138.932 637.465,138.932 C639.777,138.932 641.652,140.807 641.652,143.119 z" fill="#FF0000"/>
      <path d="M494.916,143.119 C494.916,145.432 493.041,147.307 490.729,147.307 C488.416,147.307 486.541,145.432 486.541,143.119 C486.541,140.807 488.416,138.932 490.729,138.932 C493.041,138.932 494.916,140.807 494.916,143.119 z" fill="#FF0000"/>
    </g>
    <g>
      <path d="M502.85,107.756 C502.121,109.018 500.507,109.451 499.244,108.722 C497.982,107.993 497.549,106.379 498.278,105.116 C499.007,103.854 500.621,103.421 501.884,104.15 C503.146,104.879 503.579,106.493 502.85,107.756 z" fill="#FF0000"/>
      <path d="M629.915,181.122 C629.186,182.385 627.572,182.817 626.31,182.088 C625.047,181.359 624.615,179.745 625.344,178.483 C626.073,177.22 627.687,176.788 628.949,177.517 C630.212,178.246 630.644,179.86 629.915,181.122 z" fill="#FF0000"/>
    </g>
    <g>
      <path d="M528.737,81.87 C527.475,82.599 525.86,82.166 525.132,80.904 C524.403,79.642 524.835,78.027 526.098,77.298 C527.36,76.57 528.974,77.002 529.703,78.265 C530.432,79.527 530,81.141 528.737,81.87 z" fill="#FF0000"/>
      <path d="M602.096,208.94 C600.833,209.669 599.219,209.236 598.49,207.974 C597.761,206.712 598.194,205.097 599.456,204.369 C600.719,203.64 602.333,204.072 603.062,205.335 C603.791,206.597 603.358,208.211 602.096,208.94 z" fill="#FF0000"/>
    </g>
    <g>
      <path d="M564.097,220.675 C561.784,220.675 559.909,218.8 559.909,216.487 C559.909,214.175 561.784,212.3 564.097,212.3 C566.409,212.3 568.284,214.175 568.284,216.487 C568.284,218.8 566.409,220.675 564.097,220.675 z" fill="#FF0000"/>
      <path d="M564.097,73.939 C561.784,73.939 559.909,72.064 559.909,69.751 C559.909,67.439 561.784,65.564 564.097,65.564 C566.409,65.564 568.284,67.439 568.284,69.751 C568.284,72.064 566.409,73.939 564.097,73.939 z" fill="#FF0000"/>
    </g>
    <g>
      <path d="M528.733,204.366 C529.996,205.095 530.428,206.709 529.699,207.972 C528.97,209.234 527.356,209.667 526.094,208.938 C524.831,208.209 524.399,206.595 525.128,205.332 C525.857,204.07 527.471,203.637 528.733,204.366 z" fill="#FF0000"/>
      <path d="M602.1,77.301 C603.362,78.03 603.795,79.644 603.066,80.906 C602.337,82.169 600.723,82.601 599.46,81.872 C598.198,81.143 597.765,79.529 598.494,78.267 C599.223,77.004 600.837,76.572 602.1,77.301 z" fill="#FF0000"/>
    </g>
    <g>
      <path d="M502.848,178.479 C503.576,179.741 503.144,181.356 501.881,182.084 C500.619,182.813 499.005,182.381 498.276,181.118 C497.547,179.856 497.98,178.242 499.242,177.513 C500.504,176.784 502.119,177.217 502.848,178.479 z" fill="#FF0000"/>
      <path d="M629.918,105.12 C630.646,106.383 630.214,107.997 628.951,108.726 C627.689,109.455 626.075,109.022 625.346,107.76 C624.617,106.497 625.05,104.883 626.312,104.154 C627.574,103.425 629.189,103.858 629.918,105.12 z" fill="#FF0000"/>
    </g>
  </g>
</svg>
