<?xml version="1.0" encoding="UTF-8"?>
<!DOCTYPE svg PUBLIC "-//W3C//DTD SVG 1.1//EN" "http://www.w3.org/Graphics/SVG/1.1/DTD/svg11.dtd">
<svg version="1.1" xmlns="http://www.w3.org/2000/svg" xmlns:xlink="http://www.w3.org/1999/xlink" x="0" y="0" width="60" height="60" viewBox="0, 0, 60, 60">
  <g id="Layer_x0020_1" transform="translate(-131.7, -599.052)">
    <path d="M131.7,599.052 L191.7,599.052 L191.7,659.052 L131.7,659.052 L131.7,599.052 z" fill="#86C429"/>
    <g>
      <path d="M191.7,599.052 L191.7,603.22 L165.87,629.052 L191.7,654.883 L191.7,659.052 L187.531,659.052 L161.7,633.221 L135.869,659.052 L131.7,659.052 L131.7,654.883 L157.531,629.052 L131.7,603.22 L131.7,599.052 L135.868,599.052 L161.7,624.902 L187.531,599.052 L191.7,599.052 z" fill="#009900"/>
      <path d="M161.7,636.049 L184.703,659.052 L138.697,659.052 L161.7,636.049 z" fill="#009900"/>
      <path d="M131.7,606.049 L154.703,629.052 L131.7,652.055 L131.7,606.049 z" fill="#009900"/>
      <path d="M191.7,606.049 L191.7,652.055 L168.697,629.052 L191.7,606.049 z" fill="#009900"/>
      <path d="M184.703,599.052 L161.7,622.055 L138.697,599.052 L184.703,599.052 z" fill="#009900"/>
    </g>
  </g>
</svg>
